<svg xmlns="http://www.w3.org/2000/svg" width="30" height="30" fill="none" viewBox="0 0 30 30">
    <g clip-path="url(#clip0)">
        <path fill="#00A2C7" d="M28.023 19.91c.6-.766.887-1.587.85-2.432-.036-.93-.452-1.66-.795-2.106.398-.992.55-2.554-.778-3.767-.974-.888-2.627-1.286-4.918-1.176-1.61.074-2.958.374-3.013.386h-.006c-.306.055-.63.123-.962.196-.024-.392.043-1.365.766-3.558.857-2.609.808-4.605-.16-5.94C17.992.11 16.369 0 15.892 0c-.46 0-.882.19-1.182.539-.68.79-.6 2.247-.515 2.921-.808 2.168-3.074 7.484-4.991 8.96-.037.024-.067.055-.098.085-.563.595-.943 1.238-1.2 1.801C7.543 14.11 7.133 14 6.692 14H2.956C1.548 14 .41 15.145.41 16.547V26.5c0 1.409 1.145 2.548 2.547 2.548h3.736c.545 0 1.053-.172 1.47-.466l1.439.172c.22.03 4.14.527 8.164.447.728.055 1.414.086 2.051.086 1.096 0 2.052-.086 2.848-.258 1.874-.398 3.154-1.194 3.803-2.363.496-.895.496-1.783.416-2.346 1.22-1.102 1.434-2.321 1.39-3.178-.024-.496-.134-.919-.25-1.231zM2.956 27.393c-.496 0-.894-.404-.894-.894v-9.958c0-.496.404-.894.894-.894h3.736c.496 0 .894.404.894.894v9.952c0 .496-.404.894-.894.894H2.956v.006zm23.499-8.2c-.257.27-.306.68-.11.998 0 .007.25.435.281 1.023.043.802-.343 1.513-1.151 2.119-.288.22-.404.6-.282.943 0 .006.263.815-.165 1.58-.41.735-1.323 1.262-2.707 1.556-1.109.239-2.615.281-4.465.135h-.085c-3.938.085-7.919-.43-7.962-.435h-.006l-.618-.074c.036-.171.055-.355.055-.539v-9.958c0-.263-.043-.52-.117-.76.11-.41.417-1.322 1.14-2.1 2.75-2.18 5.438-9.535 5.554-9.853.05-.129.061-.27.037-.41-.104-.687-.068-1.526.08-1.777.324.006 1.2.098 1.726.827.625.864.6 2.407-.073 4.452-1.029 3.117-1.115 4.759-.3 5.481.404.362.943.38 1.335.24.373-.086.729-.16 1.066-.215l.08-.018c1.88-.41 5.248-.662 6.417.404.992.906.288 2.106.209 2.235-.227.343-.16.79.147 1.066.006.006.649.612.68 1.427.024.545-.233 1.102-.766 1.653z"/>
    </g>
    <defs>
        <clipPath id="clip0">
            <path fill="#fff" d="M0 0H29.286V29.286H0z"/>
        </clipPath>
    </defs>
</svg>
