<svg xmlns="http://www.w3.org/2000/svg" width="30" height="30" fill="none" viewBox="0 0 30 30">
    <g clip-path="url(#clip0)">
        <path fill="#00A2C7" d="M1.976 9.376c-.6.766-.888 1.586-.851 2.431.036.931.453 1.66.796 2.107-.398.992-.551 2.554.778 3.766.973.888 2.627 1.287 4.917 1.176 1.611-.073 2.958-.373 3.013-.386h.007c.306-.055.63-.122.961-.195.024.391-.043 1.365-.765 3.558-.858 2.609-.809 4.605.159 5.94 1.016 1.402 2.64 1.513 3.117 1.513.46 0 .882-.19 1.182-.54.68-.79.6-2.247.514-2.92.809-2.168 3.075-7.484 4.992-8.96.036-.025.067-.055.098-.086.563-.594.943-1.237 1.2-1.8.361.196.771.306 1.212.306h3.736c1.409 0 2.548-1.145 2.548-2.548V2.786c0-1.408-1.145-2.547-2.548-2.547h-3.736c-.545 0-1.053.171-1.47.465L20.398.533c-.22-.03-4.14-.527-8.163-.447C11.505.03 10.819 0 10.182 0 9.086 0 8.131.086 7.335.257 5.46.655 4.18 1.451 3.53 2.621c-.496.894-.496 1.782-.416 2.346-1.219 1.102-1.433 2.32-1.39 3.178.024.496.135.919.251 1.231zm25.066-7.484c.496 0 .894.405.894.894v9.958c0 .496-.404.895-.894.895h-3.736c-.496 0-.894-.405-.894-.895V2.793c0-.496.405-.895.894-.895l3.736-.006zm-23.498 8.2c.257-.269.306-.68.11-.998 0-.006-.251-.434-.282-1.022-.043-.803.343-1.513 1.152-2.12.287-.22.404-.6.281-.942 0-.007-.263-.815.166-1.58.41-.735 1.322-1.262 2.707-1.556 1.108-.239 2.615-.282 4.464-.135h.086c3.938-.085 7.918.429 7.961.435h.006l.619.074c-.037.171-.055.355-.055.538v9.958c0 .264.043.52.116.76-.11.41-.416 1.323-1.139 2.1-2.75 2.18-5.438 9.536-5.555 9.854-.049.129-.06.27-.036.41.104.686.067 1.525-.08 1.776-.324-.006-1.2-.097-1.727-.826-.625-.864-.6-2.407.074-4.453 1.028-3.117 1.114-4.758.3-5.48-.405-.362-.944-.38-1.335-.24-.374.086-.73.16-1.066.215l-.08.018c-1.88.41-5.248.662-6.418-.404-.992-.906-.288-2.107-.208-2.235.227-.343.16-.79-.147-1.066-.006-.006-.65-.612-.68-1.427-.024-.545.233-1.102.766-1.653z"/>
    </g>
    <defs>
        <clipPath id="clip0">
            <path fill="#fff" d="M0 0H29.286V29.286H0z" transform="translate(.714)"/>
        </clipPath>
    </defs>
</svg>
